<svg height="297mm" viewBox="0 0 744.09448819 1052.3622047" width="210mm" xmlns="http://www.w3.org/2000/svg" xmlns:xlink="http://www.w3.org/1999/xlink"><linearGradient id="a" gradientUnits="userSpaceOnUse" x1="207.418732" x2="571.71635537628" y1="704.94341412226" y2="340.63838984175"><stop offset="0" stop-color="#4e505d"/><stop offset="1" stop-color="#7a859c"/></linearGradient><path d="m190 322.36221h400v400h-400z" fill="none"/><rect fill="url(#a)" height="364.32019" ry="12.2824" width="364.32019" x="207.41873" y="340.62326"/><g fill="#fff" stroke="#fff" stroke-width="2.341"><path d="m353.10662 396.95225v30.68531h-25.93459c-11.22556.00024-19.04937 2.32576-23.47147 6.97656-4.30881 4.65127-6.4632 9.02312-6.46313 21.11559v15.26697h53.53513v30.94118h-53.53513v166.40234h-31.46533v-166.40234h-37.9346v-30.94118h37.9346v-11.60429c0-21.74336 4.93234-37.55686 14.79719-47.44057 9.86475-9.99945 25.51238-14.99931 46.94289-14.99957z"/><path d="m533.47651 550.43643v117.90377h-31.29526v-116.85729c-.00017-18.48774-3.5152-26.32456-10.54514-35.51049-7.03023-9.18564-17.57535-13.77852-31.63542-13.7787-16.89502.00018-30.21814 5.52327-39.9695 16.56932-9.75148 11.04635-14.62719 20.10407-14.62711 39.17319v110.40397h-31.46536v-271.38795h31.46536v104.39243c7.48358-11.74368 16.27119-20.5225 26.36284-26.33647 10.20487-5.8136 21.94058-6.7205 35.20717-6.7207 21.88387.0002 38.43858 6.97675 49.66421 20.92966 11.2253 13.83699 16.83802 34.2434 16.83821 61.21926"/></g></svg>